<?xml version="1.0" encoding="UTF-8"?>
<svg width="169px" height="143px" viewBox="0 0 169 143" version="1.1" xmlns="http://www.w3.org/2000/svg" xmlns:xlink="http://www.w3.org/1999/xlink">
    <!-- Generator: Sketch 52.2 (67145) - http://www.bohemiancoding.com/sketch -->
    <title>“</title>
    <desc>Created with Sketch.</desc>
    <g id="Page-1" stroke="none" stroke-width="1" fill="none" fill-rule="evenodd" opacity="0.140000001">
        <g id="testimonials" transform="translate(-824.000000, -559.000000)" fill="#88C8ED">
            <path d="M902.583487,661.537771 C902.583487,682.633661 885.323213,699.893935 863.747871,699.893935 C841.213624,699.893935 825.391707,682.633661 825.391707,657.222703 C825.391707,622.222703 855.117734,576.195305 887.720474,559.893935 L888.679378,559.893935 C875.25472,575.715853 863.747871,599.688456 859.912255,622.702155 C882.925953,620.784346 902.583487,638.524072 902.583487,661.537771 Z M993.679378,661.537771 C993.679378,682.633661 976.419104,699.893935 954.843761,699.893935 C932.309515,699.893935 916.487597,682.633661 916.487597,657.222703 C916.487597,622.222703 946.213624,576.195305 978.816364,559.893935 L979.775268,559.893935 C966.350611,575.715853 954.843761,599.688456 951.008145,622.702155 C974.021844,620.784346 993.679378,638.524072 993.679378,661.537771 Z" id="“" transform="translate(909.535542, 629.893935) rotate(2.000000) translate(-909.535542, -629.893935) "></path>
        </g>
    </g>
</svg>