<?xml version="1.0" standalone="no"?>
<!DOCTYPE svg PUBLIC "-//W3C//DTD SVG 1.1//EN" "http://www.w3.org/Graphics/SVG/1.1/DTD/svg11.dtd" >
<svg xmlns="http://www.w3.org/2000/svg">
<metadata></metadata>
<defs>
<font id="vito_extendedlight" horiz-adv-x="1687" >
<font-face units-per-em="2048" ascent="1536" descent="-512" />
<missing-glyph horiz-adv-x="565" />
<glyph horiz-adv-x="0" />
<glyph horiz-adv-x="682" />
<glyph unicode=" "  horiz-adv-x="565" />
<glyph unicode="&#x09;" horiz-adv-x="565" />
<glyph unicode="&#xa0;" horiz-adv-x="565" />
<glyph unicode="!" horiz-adv-x="653" d="M252 0v147h149v-147h-149zM268 1382h117l-25 -999h-67z" />
<glyph unicode="&#x22;" horiz-adv-x="667" d="M102 1382h125l-28 -561h-78zM430 1382h123l-29 -561h-78z" />
<glyph unicode="#" horiz-adv-x="1458" d="M47 414l25 88h260l94 383h-281l27 86h274l101 411h98l-100 -411h485l98 411h99l-99 -411h283l-25 -86h-280l-92 -383h291l-25 -88h-287l-100 -414h-100l102 414h-485l-101 -414h-98l100 414h-264zM430 502h485l93 383h-484z" />
<glyph unicode="$" horiz-adv-x="1415" d="M80 197l67 92q81 -85 214.5 -139.5t302.5 -63.5v592q-59 9 -93.5 14.5t-86.5 15.5t-82.5 19.5t-71 24t-64.5 30t-50.5 38t-40.5 48t-23 59t-9 72.5q0 171 133.5 278t387.5 116v233h88v-235q268 -9 467 -140l-60 -88q-143 113 -407 127v-524l39 -6q195 -31 277 -62 q173 -64 204 -208q8 -35 8 -76q0 -102 -41.5 -183t-114.5 -132.5t-167 -79.5t-205 -33v-197h-88v197q-186 9 -337 67t-247 144zM248 1001q0 -33 11 -60t28 -47t49.5 -36.5t61.5 -27t79 -21t87 -16.5t100 -15v514q-207 -4 -311.5 -82.5t-104.5 -208.5zM752 86q88 4 163 24 t135 57t94 97t34 137q0 42 -11.5 76t-28 58t-50 43.5t-62 31.5t-80.5 23.5t-90 17.5t-104 15v-580z" />
<glyph unicode="%" horiz-adv-x="1751" d="M121 1049v18q0 141 97.5 235.5t244.5 94.5q152 0 247 -94t95 -236v-16q0 -136 -95.5 -229t-246.5 -93q-148 0 -245 92.5t-97 227.5zM205 1053q0 -108 72 -176t188 -68t185 68t69 176v12q0 114 -69.5 184t-186.5 70q-115 0 -186.5 -70.5t-71.5 -183.5v-12zM315 0 l1024 1382h99l-1026 -1382h-97zM954 309v19q0 142 96.5 235.5t245.5 93.5q152 0 246 -93.5t94 -235.5v-19q0 -135 -94.5 -227t-245.5 -92q-149 0 -245.5 92t-96.5 227zM1036 313q0 -108 72 -175.5t188 -67.5t186 67.5t70 175.5v13q0 113 -70 182.5t-186 69.5 q-117 0 -188.5 -69.5t-71.5 -182.5v-13z" />
<glyph unicode="&#x26;" horiz-adv-x="1660" d="M131 434v15q0 193 127 319t342 156l-344 356l37 102h1096v-98h-1012l905 -936q17 25 37 64q59 103 76 231.5t6 241.5l106 -2q3 -135 -22 -267t-76 -229q-29 -56 -63 -104l274 -283h-125l-205 211q-213 -234 -540 -234q-179 0 -317 51t-220 156t-82 250zM236 442 q0 -185 140.5 -277.5t381.5 -92.5q298 0 471 202l-559 578q-198 -19 -316 -126.5t-118 -276.5v-7z" />
<glyph unicode="'" horiz-adv-x="331" d="M94 1382h123l-29 -561h-77z" />
<glyph unicode="(" horiz-adv-x="804" d="M164 573v37q0 147 30 280t91.5 254.5t162 226t236.5 185.5l49 -81q-124 -75 -215.5 -173.5t-146 -211.5t-80 -233t-25.5 -251v-33q0 -547 453 -847l-57 -80q-249 159 -373.5 394.5t-124.5 532.5z" />
<glyph unicode=")" horiz-adv-x="804" d="M72 1475l49 81q180 -107 297.5 -257.5t169 -320.5t51.5 -368v-37q0 -297 -124.5 -532.5t-373.5 -394.5l-55 80q453 302 453 847v33q0 177 -45 331.5t-151.5 296.5t-270.5 241z" />
<glyph unicode="*" horiz-adv-x="964" d="M96 1108l51 92l299 -170l-18 352h107l-15 -352l301 170l47 -92l-325 -139l239 -287l-82 -59l-217 297l-225 -297l-80 59l244 287z" />
<glyph unicode="+" horiz-adv-x="1132" d="M113 563v96h405v420h98v-420h404v-96h-404v-418h-98v418h-405z" />
<glyph unicode="," horiz-adv-x="442" d="M70 -338q65 129 93.5 261.5t35.5 285.5h108q-25 -351 -147 -576z" />
<glyph unicode="-" horiz-adv-x="868" d="M127 510v100h612v-100h-612z" />
<glyph unicode="." horiz-adv-x="520" d="M184 0v147h150v-147h-150z" />
<glyph unicode="/" horiz-adv-x="1009" d="M68 -203l768 1753h106l-768 -1753h-106z" />
<glyph unicode="0" horiz-adv-x="1515" d="M102 662v59q0 148 50 275.5t137 217t209.5 140.5t263.5 51q187 0 335.5 -85.5t233 -242t84.5 -356.5v-59q0 -299 -183 -489.5t-470 -190.5q-194 0 -345 88t-233 243t-82 349zM209 668q0 -266 153 -427t400 -161q245 0 395 157.5t150 430.5v47q0 266 -150.5 429 t-394.5 163q-249 0 -401 -163t-152 -429v-47z" />
<glyph unicode="1" horiz-adv-x="913" d="M96 1104q233 130 475 278h82v-1382h-100v1260q-47 -27 -193.5 -110.5t-236.5 -135.5z" />
<glyph unicode="2" horiz-adv-x="1374" d="M113 0q-5 151 22.5 262t95 195t168 142.5t250.5 105.5q35 11 87.5 25.5t89.5 24t83.5 25t78.5 30t65 36t53 45.5t32.5 57.5t12.5 73.5q0 76 -35.5 131.5t-99.5 87.5t-143.5 47t-178.5 15q-169 0 -294.5 -59t-196.5 -165l-80 74q77 107 225 179.5t350 72.5q112 0 211 -23 t177 -68t123.5 -118t45.5 -166q0 -52 -13 -95t-34.5 -75.5t-56.5 -60t-72 -47.5t-89 -39.5t-98 -33.5t-109 -32q-37 -11 -56 -16q-136 -38 -226 -81t-155 -105t-95 -145.5t-34 -199.5h1053v-100h-1157z" />
<glyph unicode="3" horiz-adv-x="1374" d="M39 227l78 86q69 -103 217 -170t344 -67q98 0 182 18.5t153.5 56.5t109.5 104t40 153v20q0 83 -30 138.5t-91.5 86.5t-142 43.5t-194.5 12.5q-53 0 -111 -7l-43 101l559 481h-993v98h1122v-108l-569 -481q89 0 110 -2q107 -4 192 -24.5t152 -60.5t103.5 -107t36.5 -157 v-26q0 -86 -31 -158t-85 -123.5t-128.5 -87t-160.5 -53t-181 -17.5q-215 0 -380 71.5t-259 178.5z" />
<glyph unicode="4" horiz-adv-x="1372" d="M49 336v90l891 956h96v-952h332v-94h-332v-336h-92v336h-895zM178 430h766v821z" />
<glyph unicode="5" horiz-adv-x="1406" d="M78 207l72 86q180 -217 538 -217q78 0 149.5 13t137 42.5t114 73t77 108t28.5 144.5v18q0 100 -35 169t-102 106t-147 52t-187 15q-135 0 -266 -48t-219 -136l-99 53l45 696h1039v-98h-947l-36 -545q75 71 200.5 122.5t296.5 51.5q94 0 174.5 -13.5t152 -45.5t122 -80 t79.5 -121t29 -166v-24q0 -119 -48.5 -213t-133 -153t-193.5 -89.5t-235 -30.5q-188 0 -343 62t-263 168z" />
<glyph unicode="6" horiz-adv-x="1439" d="M102 647v41q0 150 41.5 279.5t120 227.5t202 154t277.5 56q160 0 279.5 -36t220.5 -112l-63 -83q-88 78 -191 105.5t-256 27.5q-133 0 -235 -47t-166 -132t-96.5 -198.5t-32.5 -251.5v-35v-6q82 97 231.5 169.5t345.5 72.5q85 0 161 -12t148.5 -41t124.5 -73t83.5 -114 t31.5 -158v-22q0 -221 -161 -349t-423 -128q-186 0 -331.5 81.5t-228.5 233.5t-83 350zM211 530q32 -210 174.5 -331t355.5 -121q228 0 358 97.5t130 277.5v18q0 72 -23.5 127t-63.5 89.5t-99.5 56t-125 30t-145.5 8.5q-183 0 -330 -71.5t-231 -180.5z" />
<glyph unicode="7" horiz-adv-x="1230" d="M41 1284v98h1165v-110l-774 -1272h-117l785 1284h-1059z" />
<glyph unicode="8" horiz-adv-x="1458" d="M98 397v23q0 69 24 126.5t61 94.5t85.5 63.5t95 38.5t91.5 15q-94 2 -177 79t-83 197v17q0 118 69 200t186.5 121t272.5 39t274 -36t193 -117t74 -199v-17q0 -125 -78.5 -200.5t-188.5 -83.5q64 -2 125.5 -22.5t116 -58.5t88 -102.5t33.5 -146.5v-22q0 -135 -81.5 -233.5 t-223.5 -148t-330 -49.5q-183 0 -325 51t-222 147.5t-80 223.5zM203 403q0 -107 70 -182.5t185.5 -111t266.5 -35.5q156 0 272.5 33.5t187 108.5t70.5 185v21q0 58 -19 103.5t-54.5 77t-82 53.5t-108 34t-125 17.5t-139.5 5.5q-115 0 -204.5 -14t-164 -45.5t-115 -90.5 t-40.5 -143v-17zM299 1042q0 -71 33 -121t94.5 -76t134.5 -37t168 -11q82 0 145 6.5t118.5 23t90.5 44.5t55.5 72t20.5 104v12q0 254 -436 254q-424 0 -424 -258v-13z" />
<glyph unicode="9" horiz-adv-x="1382" d="M84 936v12q0 144 79 249.5t207.5 156.5t288.5 51q135 0 247 -44t196.5 -129t132 -220.5t47.5 -309.5v-45q0 -318 -164 -497.5t-471 -179.5q-171 0 -320.5 62.5t-240.5 158.5l76 82q62 -80 191 -142.5t286 -62.5q543 0 543 596v45v18q-88 -86 -232 -142t-305 -56 q-109 0 -207.5 24t-178.5 70.5t-127.5 124.5t-47.5 178zM190 944q0 -82 38 -143.5t104 -96.5t146 -52t173 -17q165 0 306 59.5t217 149.5q-30 234 -169 348.5t-358 114.5q-130 0 -231.5 -38.5t-163.5 -119t-62 -193.5v-12z" />
<glyph unicode=":" horiz-adv-x="520" d="M184 -2v149h152v-149h-152zM184 623v149h152v-149h-152z" />
<glyph unicode=";" horiz-adv-x="475" d="M72 -338q65 129 93.5 261.5t35.5 285.5h108q-29 -358 -147 -576zM188 623v149h150v-149h-150z" />
<glyph unicode="&#x3c;" horiz-adv-x="1130" d="M113 561v103l905 407v-115l-801 -344l801 -344v-114z" />
<glyph unicode="=" horiz-adv-x="1132" d="M113 350v96h907v-96h-907zM113 772v98h907v-98h-907z" />
<glyph unicode="&#x3e;" horiz-adv-x="1132" d="M113 154v114l802 344l-802 344v115l907 -407v-103z" />
<glyph unicode="?" horiz-adv-x="1300" d="M96 1161q73 103 217 174.5t353 71.5q149 0 267 -39.5t191.5 -125t73.5 -206.5q0 -55 -16.5 -101.5t-41.5 -79t-69.5 -65t-84.5 -54t-103 -50.5q-143 -68 -187 -136t-24 -167h-111q-63 220 225 360q155 74 202 108q83 60 96 147q3 20 3 42q0 89 -58.5 150.5t-153.5 89 t-220 27.5q-159 0 -281 -56t-188 -159zM541 0v147h149v-147h-149z" />
<glyph unicode="@" horiz-adv-x="1982" d="M127 526l2 45q10 131 54 253t123.5 228t186.5 184.5t251.5 123.5t310.5 45q199 0 356.5 -55.5t257.5 -154t148.5 -233t37.5 -292.5l-4 -31q-14 -211 -129 -342t-292 -131q-100 -1 -168 44t-88 124q-35 -73 -105 -122.5t-170 -49.5q-98 0 -164 51.5t-92.5 133t-19.5 181.5 l4 52q13 177 106.5 286t261.5 109q66 0 121 -25.5t80 -64.5l6 80h105l-41 -555q-5 -74 41 -119t133 -45q131 2 216.5 105.5t98.5 291.5l2 19q22 305 -161.5 478t-553.5 173q-180 0 -330.5 -60.5t-250 -163t-158.5 -234.5t-70 -280l-4 -57q-14 -192 51 -340.5t204.5 -232.5 t334.5 -84q121 0 237.5 31t178.5 92l57 -82q-84 -62 -205 -97.5t-262 -35.5q-172 0 -310 57.5t-227 158.5t-131 240t-30 301zM725 520q-8 -122 36.5 -197t147.5 -75q96 -1 162 66t100 173l21 293q-32 59 -78.5 86t-114.5 27q-120 0 -189.5 -87.5t-80.5 -227.5z" />
<glyph unicode="A" horiz-adv-x="1609" d="M41 0l735 1382h121l672 -1382h-111l-196 406h-893l-215 -406h-113zM420 500h797l-381 784z" />
<glyph unicode="B" horiz-adv-x="1611" d="M209 0v1382h758q223 0 329.5 -91t106.5 -249v-18q0 -118 -66 -201.5t-163 -91.5h12q56 -1 110 -17q58 -18 106.5 -54.5t77.5 -98t29 -139.5v-19q0 -185 -127 -294t-376 -109h-797zM315 102h684q199 0 301.5 74t102.5 221v17q0 138 -90 198t-258 60h-740v-570zM315 768 h697q136 0 211 67.5t75 188.5v14q0 242 -309 242h-674v-512z" />
<glyph unicode="C" horiz-adv-x="1542" d="M113 651v33q0 211 87.5 374.5t251.5 255t382 91.5q397 0 622 -234l-76 -73q-54 62 -122 104.5t-143.5 62.5t-143 27.5t-148.5 7.5q-277 0 -439.5 -165t-162.5 -451v-31q0 -182 84 -313t224.5 -194.5t320.5 -63.5q165 0 312.5 59.5t230.5 173.5l82 -77 q-102 -117 -259 -189t-366 -72q-156 0 -290 45t-233.5 128.5t-156.5 212.5t-57 288z" />
<glyph unicode="D" horiz-adv-x="1685" d="M209 0v1382h600q359 0 561.5 -175t202.5 -498v-37q0 -316 -197.5 -494t-544.5 -178h-622zM315 102h508q309 0 475 145.5t166 424.5v35q0 289 -170.5 431t-486.5 142h-492v-1178z" />
<glyph unicode="E" horiz-adv-x="1447" d="M209 0v1382h1114v-100h-1006v-528h844v-103h-844v-551h1004v-100h-1112z" />
<glyph unicode="F" horiz-adv-x="1411" d="M209 2v1380h1122v-100h-1014v-575h863v-101h-863v-604h-108z" />
<glyph unicode="G" horiz-adv-x="1673" d="M113 643v35q0 116 29 222.5t89.5 198t146.5 159.5t207 106.5t265 38.5q214 0 357 -57t247 -164l-82 -76q-82 100 -208.5 147t-313.5 47q-155 0 -276.5 -48.5t-197.5 -134t-115.5 -196.5t-39.5 -241v-33q0 -176 79.5 -305t220.5 -195.5t327 -66.5q187 0 327.5 43.5 t221.5 116.5v381h-541v94h641v-482q0 -124 14 -233h-84q-22 77 -24 141q-90 -70 -232.5 -117t-339.5 -47q-151 0 -282 45.5t-228 129.5t-152.5 210.5t-55.5 280.5z" />
<glyph unicode="H" horiz-adv-x="1708" d="M209 0v1382h108v-637h1076v637h108v-1382h-108v645h-1076v-645h-108z" />
<glyph unicode="I" horiz-adv-x="532" d="M213 0v1382h109v-1382h-109z" />
<glyph unicode="J" horiz-adv-x="1488" d="M68 285l90 73q66 -124 211.5 -202t322.5 -78q516 0 516 465v739h-1009v100h1116v-843q0 -273 -164 -417.5t-459 -144.5q-200 0 -366 86t-258 222z" />
<glyph unicode="K" horiz-adv-x="1550" d="M209 0v1382h106v-907l1008 907h145l-671 -606l696 -776h-131l-637 713l-410 -371v-342h-106z" />
<glyph unicode="L" horiz-adv-x="1361" d="M209 0v1382h106v-1282h959v-100h-1065z" />
<glyph unicode="M" horiz-adv-x="2048" d="M203 0v1382h135l686 -976l688 976h133v-1382h-102v1257l-688 -978h-62l-688 981v-1260h-102z" />
<glyph unicode="N" horiz-adv-x="1718" d="M203 0v1382h127l1085 -1257v1257h103v-1382h-129l-1084 1262v-1262h-102z" />
<glyph unicode="O" d="M113 659v48q0 202 89.5 360.5t256.5 248t385 89.5q163 0 300.5 -53t231.5 -145.5t146.5 -221.5t52.5 -278v-43q0 -145 -52 -271.5t-145.5 -218t-231 -144.5t-300.5 -53q-165 0 -304 53.5t-232.5 145.5t-145 216.5t-51.5 266.5zM221 664q0 -264 172.5 -424t452.5 -160 t450 158.5t170 429.5v37q0 275 -169.5 436.5t-452.5 161.5t-453 -161.5t-170 -439.5v-38z" />
<glyph unicode="P" horiz-adv-x="1523" d="M209 0v1382h700q249 0 382.5 -104t133.5 -313v-21q0 -198 -138.5 -310t-383.5 -112h-588v-522h-106zM315 625h586q204 0 311 79.5t107 239.5v17q0 167 -98.5 243t-300.5 76h-605v-655z" />
<glyph unicode="Q" horiz-adv-x="1691" d="M113 659v48q0 151 52.5 280t146.5 221.5t231.5 144.5t302.5 52q163 0 300.5 -53t231.5 -145.5t146.5 -221.5t52.5 -278v-43q0 -196 -91.5 -353t-256.5 -245l248 -291h-117l-213 254q-142 -52 -301 -52q-165 0 -304 53.5t-232.5 145.5t-145 216.5t-51.5 266.5zM223 664 q0 -264 172 -424t451 -160q129 0 229 33l-256 305h113l229 -273q145 70 226 205t81 318v37q0 275 -170.5 436.5t-453.5 161.5t-452 -161.5t-169 -439.5v-38z" />
<glyph unicode="R" horiz-adv-x="1546" d="M209 0v1382h702q244 0 372 -104.5t128 -290.5v-20q0 -173 -107 -280t-305 -124l455 -563h-127l-450 561h-562v-561h-106zM315 659h627q182 0 271.5 80t89.5 228v14q0 152 -96.5 225.5t-272.5 73.5h-619v-621z" />
<glyph unicode="S" horiz-adv-x="1402" d="M80 193l67 92q91 -93 239.5 -149t336.5 -56q96 0 179 18t150 55t105.5 100.5t38.5 147.5q0 50 -14 88.5t-44 64.5t-65.5 44.5t-90 31t-106 21.5t-123.5 19q-10 1 -15 2t-13.5 2t-15.5 2q-235 35 -322 61q-174 52 -221 161q-21 48 -21 110q0 178 145 287.5t419 109.5 q305 0 526 -143l-59 -88q-87 66 -215.5 97.5t-266.5 31.5q-221 0 -332.5 -79.5t-111.5 -215.5q0 -108 118 -158q79 -35 292 -66q127 -18 141 -20q195 -32 276 -61q172 -63 208 -202q11 -41 11 -89q0 -107 -45.5 -191.5t-125.5 -137t-182 -79.5t-220 -27q-204 0 -371.5 61 t-271.5 155z" />
<glyph unicode="T" horiz-adv-x="1429" d="M51 1284v98h1325v-98h-608v-1284h-109v1284h-608z" />
<glyph unicode="U" horiz-adv-x="1652" d="M174 575v807h111v-817q0 -160 69.5 -270.5t190.5 -162.5t286 -52q254 0 396.5 125.5t142.5 367.5v809h111v-802q0 -280 -171 -441.5t-481 -161.5q-307 0 -481 157.5t-174 440.5z" />
<glyph unicode="V" horiz-adv-x="1603" d="M55 1382h119l635 -1288l621 1288h118l-674 -1382h-129z" />
<glyph unicode="W" horiz-adv-x="2201" d="M55 1382h111l563 -1298l311 672l-303 626h113l258 -559l240 559h110l-282 -624l323 -674l537 1298h110l-581 -1382h-129l-326 686l-315 -686h-133z" />
<glyph unicode="X" horiz-adv-x="1527" d="M76 0l610 713l-561 669h131l508 -612l508 612h131l-561 -669l610 -713h-131l-557 655l-557 -655h-131z" />
<glyph unicode="Y" horiz-adv-x="1480" d="M35 1382h129l586 -804l567 804h129l-645 -899v-483h-109v483z" />
<glyph unicode="Z" horiz-adv-x="1421" d="M135 0v111l1047 1171h-1039v100h1157v-110l-1044 -1172h1053v-100h-1174z" />
<glyph unicode="[" horiz-adv-x="714" d="M168 -330v1864h461v-92h-361v-1680h361v-92h-461z" />
<glyph unicode="\" horiz-adv-x="1011" d="M68 1550h106l770 -1753h-106z" />
<glyph unicode="]" horiz-adv-x="714" d="M86 -238h360v1680h-360v92h461v-1864h-461v92z" />
<glyph unicode="^" horiz-adv-x="1103" d="M59 649l435 733h122l428 -733h-118l-371 651l-377 -651h-119z" />
<glyph unicode="_" horiz-adv-x="1083" d="M8 0h1067v-94h-1067v94z" />
<glyph unicode="`" horiz-adv-x="507" d="M76 1481h133l225 -351h-92z" />
<glyph unicode="a" horiz-adv-x="1159" d="M94 281q0 313 426 313q206 0 406 -90l2 90v6q0 77 -24 134q-25 59 -72.5 92.5t-108.5 49t-139 15.5q-238 0 -359 -135l-63 82q159 147 428 147q94 0 171.5 -23.5t137 -70.5t91.5 -125q32 -76 32 -174v-6q-2 -96 -2 -322q0 -205 16 -264h-94q-13 58 -16 135 q-64 -66 -167.5 -112t-240.5 -46q-83 0 -156.5 17.5t-134.5 52.5t-97 95.5t-36 138.5zM199 289q0 -59 26 -102t72 -67t102 -35t125 -11q275 0 402 157v189q-182 82 -381 82q-85 0 -144 -9t-107 -32t-71.5 -65.5t-23.5 -106.5z" />
<glyph unicode="b" horiz-adv-x="1286" d="M174 0v1446h105v-633q66 79 174 125.5t235 46.5q247 0 377.5 -126.5t130.5 -346.5v-29q0 -237 -136.5 -371.5t-381.5 -134.5q-213 0 -404 148l-4 -125h-96zM279 227q63 -68 171 -110.5t228 -42.5q197 0 305.5 102.5t108.5 298.5v25q0 391 -406 391q-145 0 -246 -52.5 t-161 -131.5v-480z" />
<glyph unicode="c" horiz-adv-x="1120" d="M90 463v31q0 210 141.5 350.5t374.5 140.5q293 0 451 -178l-78 -70q-65 84 -160 119t-221 35q-180 0 -291.5 -113t-111.5 -289v-26q0 -183 111.5 -286t301.5 -103q135 0 233.5 49t149.5 125l80 -72q-176 -199 -465 -199q-232 0 -374 132t-142 354z" />
<glyph unicode="d" horiz-adv-x="1261" d="M90 440v31q0 242 145 378t386 136q118 0 224.5 -36t162.5 -87v584h102v-1163q0 -227 20 -283h-104q-13 36 -18 137q-58 -68 -165 -114t-245 -46q-143 0 -256.5 52.5t-182.5 159t-69 251.5zM195 449q0 -94 31 -166.5t87 -117.5t130.5 -68t164.5 -23q137 0 240 43.5 t160 126.5v510q-57 67 -164.5 102t-229.5 35q-196 0 -307.5 -110t-111.5 -310v-22z" />
<glyph unicode="e" horiz-adv-x="1163" d="M90 455v30q0 140 58.5 252t175.5 180t274 68q104 0 189 -29.5t141 -77.5t94 -113t54.5 -133t17.5 -140v-19h-899v-14q0 -191 111.5 -289t289.5 -98q256 0 383 164l74 -70q-68 -80 -184 -134.5t-275 -54.5q-142 0 -255.5 56t-181 165.5t-67.5 256.5zM199 561h786 q-45 332 -395 332q-167 0 -268.5 -89t-122.5 -243z" />
<glyph unicode="f" horiz-adv-x="835" d="M57 874v91h254v161q0 164 68.5 248t204.5 84q72 0 138 -20t105 -56l-45 -82q-65 68 -202 68q-90 0 -130 -58.5t-40 -183.5v-161h366v-91h-364v-874h-101v874h-254z" />
<glyph unicode="g" horiz-adv-x="1263" d="M90 453v28q0 226 132.5 365t379.5 139q124 0 236 -40t172 -93l4 113h90v-942q0 -229 -134 -343t-370 -114q-150 0 -275 49t-214 131l69 86q64 -78 176 -125t252 -47q191 0 294.5 85t103.5 259v143q-57 -65 -157.5 -111t-248.5 -46q-233 2 -371.5 126t-138.5 337zM195 461 q0 -179 106.5 -278t308.5 -99q136 0 239.5 48t154.5 120v502q-57 61 -163.5 99t-234.5 38q-208 0 -309.5 -109.5t-101.5 -302.5v-18z" />
<glyph unicode="h" horiz-adv-x="1286" d="M174 0v1446h107v-637q57 72 162.5 124t242.5 52q97 0 176 -26t139 -79t92.5 -139t32.5 -200v-541h-106v532q0 187 -87.5 272t-262.5 85q-246 0 -389 -189v-700h-107z" />
<glyph unicode="i" horiz-adv-x="450" d="M164 1243v139h123v-139h-123zM174 0v965h102v-965h-102z" />
<glyph unicode="j" horiz-adv-x="458" d="M-184 -354l43 92q68 -72 166 -72q153 0 153 199v1100h103v-1090q0 -147 -64.5 -224t-189.5 -77q-61 0 -117.5 21t-93.5 51zM170 1243v139h119v-139h-119z" />
<glyph unicode="k" horiz-adv-x="1159" d="M174 0v1446h100v-1073l687 592h141l-484 -416l504 -549h-121l-452 489l-275 -233v-256h-100z" />
<glyph unicode="l" horiz-adv-x="448" d="M174 0v1446h100v-1446h-100z" />
<glyph unicode="m" horiz-adv-x="2000" d="M178 0v965h98l5 -146q56 70 156.5 118t232.5 48q118 0 211.5 -52t128.5 -138q63 79 165.5 134.5t219.5 55.5q446 0 446 -455v-530h-106v539q0 350 -330 350q-219 0 -342 -154v-735h-107v592q0 297 -315 297q-108 0 -203.5 -45t-150.5 -123v-721h-109z" />
<glyph unicode="n" horiz-adv-x="1290" d="M178 0v965h101l4 -156q69 80 177 128t228 48q212 0 328.5 -110.5t116.5 -323.5v-551h-107v535q0 180 -83.5 267t-268.5 87q-121 0 -224 -50.5t-163 -133.5v-705h-109z" />
<glyph unicode="o" horiz-adv-x="1228" d="M90 467v29q0 214 143 351.5t381 137.5q235 0 380 -136.5t145 -350.5v-29q0 -222 -145 -357t-380 -135q-237 0 -380.5 136.5t-143.5 353.5zM195 469q0 -185 111.5 -290t307.5 -105q193 0 306.5 103t113.5 290v27q0 180 -111.5 288.5t-308.5 108.5q-195 0 -307 -108.5 t-112 -288.5v-25z" />
<glyph unicode="p" horiz-adv-x="1284" d="M172 -414v1379h98l4 -148q68 76 175.5 122t244.5 46q224 0 362 -126.5t138 -350.5v-25q0 -236 -138.5 -369.5t-377.5 -133.5q-124 0 -229.5 37.5t-176.5 93.5v-525h-100zM276 215q156 -141 400 -141q193 0 303.5 103.5t110.5 303.5v25q0 193 -110.5 289t-297.5 96 q-265 0 -406 -176v-500z" />
<glyph unicode="q" horiz-adv-x="1273" d="M90 461v28q0 227 140.5 361.5t369.5 134.5q136 0 243.5 -42t168.5 -99l4 121h98v-1379h-100v543q-60 -61 -167.5 -106.5t-242.5 -45.5q-231 0 -372.5 130.5t-141.5 353.5zM195 467q0 -194 112 -292.5t299 -98.5q129 0 235 43.5t169 113.5v506q-51 61 -154 107.5 t-258 46.5q-184 0 -293.5 -108t-109.5 -298v-20z" />
<glyph unicode="r" horiz-adv-x="712" d="M178 0v965h101l4 -215q31 107 100 165t172 58q73 0 125 -25l-21 -102q-35 28 -110 28q-94 0 -167.5 -72t-100.5 -184v-618h-103z" />
<glyph unicode="s" horiz-adv-x="1024" d="M68 131l59 90q66 -70 168 -109.5t219 -39.5q160 0 250 52t90 161q0 33 -9 57.5t-29.5 41.5t-40.5 28t-57 19t-62 12t-72.5 10t-73.5 10q-195 28 -261 52q-111 39 -133 123q-7 25 -7 56q0 130 111 210.5t300 80.5q238 0 391 -113l-53 -79q-118 98 -348 98 q-135 0 -218 -51.5t-83 -143.5q0 -19 5.5 -34.5t18 -27.5t25.5 -21t36.5 -16.5t42 -12.5t50.5 -10.5t54 -8.5t60.5 -8t61.5 -8q15 -2 50.5 -7.5t53.5 -8.5t51.5 -10t52 -13.5t46.5 -17.5t44.5 -23t35.5 -30t29 -38.5t17 -48t7 -59.5q0 -156 -117 -236t-311 -80 q-272 0 -454 154z" />
<glyph unicode="t" horiz-adv-x="841" d="M57 874v91h211v235l99 29v-264h409v-91h-409v-604q0 -99 39.5 -148.5t125.5 -49.5q136 0 207 82l47 -82q-41 -39 -110 -67t-154 -28q-121 0 -187.5 72t-66.5 215v610h-211z" />
<glyph unicode="u" horiz-adv-x="1243" d="M145 395v570h107v-551q0 -183 91.5 -261.5t266.5 -78.5q123 0 219 49t150 123v719h106v-668q0 -227 23 -297h-102q-18 66 -21 145q-59 -68 -159 -118t-226 -50q-216 0 -335.5 104t-119.5 314z" />
<glyph unicode="v" horiz-adv-x="1118" d="M16 965h117l422 -881l430 881h117l-484 -965h-124z" />
<glyph unicode="w" horiz-adv-x="1683" d="M27 965h110l314 -867l327 867h125l338 -869l305 869h111l-354 -965h-121l-340 868l-330 -868h-119z" />
<glyph unicode="x" horiz-adv-x="1153" d="M49 -2l453 500l-412 469h127l363 -420l366 420h129l-420 -469l447 -500h-127l-395 448l-404 -448h-127z" />
<glyph unicode="y" horiz-adv-x="1089" d="M16 965h115l420 -863l410 863h112q-132 -272 -214 -438.5t-186 -370t-185.5 -346t-149.5 -240.5l-94 47q81 105 149.5 217.5t100.5 179.5z" />
<glyph unicode="z" horiz-adv-x="1085" d="M111 0v96l743 772h-733v97h852v-101l-740 -770h758v-94h-880z" />
<glyph unicode="{" horiz-adv-x="856" d="M113 561v92q144 -4 213 63.5t69 180.5q0 48 -15 143t-15 168q0 163 98.5 256.5t308.5 96.5l12 -91q-167 0 -242 -69.5t-75 -204.5q0 -60 14.5 -154.5t14.5 -167.5q0 -98 -59 -176t-156 -90q99 -7 157 -85.5t58 -188.5q0 -63 -12.5 -165t-12.5 -175q0 -127 69 -190.5 t236 -63.5l-14 -90q-203 -1 -297 84.5t-94 238.5q0 74 11 176t11 166q0 254 -280 246z" />
<glyph unicode="|" horiz-adv-x="649" d="M274 -324v1870h101v-1870h-101z" />
<glyph unicode="}" horiz-adv-x="815" d="M72 1470l12 91q209 -3 308.5 -96.5t99.5 -256.5q0 -73 -16.5 -168t-16.5 -143q0 -113 69.5 -180.5t214.5 -63.5v-92q-280 8 -280 -246q0 -64 11 -166t11 -176q0 -153 -94 -238.5t-297 -84.5l-16 90q168 0 237.5 63.5t69.5 190.5q0 73 -12.5 175t-12.5 165q0 110 58 188.5 t157 85.5q-98 12 -157.5 90t-59.5 176q0 73 15.5 167.5t15.5 154.5q0 135 -75 204.5t-242 69.5z" />
<glyph unicode="~" horiz-adv-x="1126" d="M113 506v119q30 53 98 80.5t158 27.5q66 0 138.5 -25t141 -50t125.5 -25q92 0 147 25.5t93 76.5v-129q-73 -76 -242 -76q-78 0 -207 50.5t-196 50.5q-89 0 -150.5 -30t-105.5 -95z" />
<glyph unicode="&#xa1;" horiz-adv-x="653" d="M252 815v150h151v-150h-151zM268 -418l25 1000h69l25 -1000h-119z" />
<glyph unicode="&#xa2;" horiz-adv-x="1122" d="M90 668v28q0 202 130 341t347 151v194h107v-194q243 -18 385 -176l-78 -70q-119 154 -381 154q-181 0 -293 -113t-112 -289v-26q0 -184 111.5 -288t301.5 -104q135 0 234.5 49.5t148.5 125.5l80 -72q-152 -175 -401 -195v-186h-105v186q-216 11 -345.5 141t-129.5 343z " />
<glyph unicode="&#xa3;" horiz-adv-x="1396" d="M78 0v121q137 70 227 181t90 249q0 30 -8 80h-270v96h235q-9 19 -33 63.5t-35.5 70t-22.5 68.5t-11 87q0 127 64 216t169 130t240 41q168 0 287 -37t221 -113l-70 -82q-149 134 -430 134q-60 0 -112 -8t-101.5 -29t-84.5 -53t-56 -83t-21 -116q0 -55 14.5 -100.5 t46.5 -105t42 -83.5h637v-96h-607q7 -40 7 -74q0 -150 -80 -268.5t-211 -188.5h1093v-100h-1220z" />
<glyph unicode="&#xa4;" horiz-adv-x="1333" d="M84 268l203 183q-74 104 -74 227v16q0 138 76 240l-205 182l72 70l198 -180q124 100 301 100q174 0 295 -100l201 180l70 -70l-205 -182q76 -107 76 -238v-18q0 -123 -74 -227l203 -183l-70 -69l-199 180q-121 -105 -297 -105q-180 0 -301 105l-198 -180zM319 680 q0 -138 91.5 -225.5t244.5 -87.5q149 0 240.5 87.5t91.5 225.5v14q0 147 -89.5 233.5t-244.5 86.5t-244.5 -87t-89.5 -235v-12z" />
<glyph unicode="&#xa5;" horiz-adv-x="1542" d="M66 1382h129l583 -804l570 804h129l-420 -585h235v-97h-305l-143 -200h448v-97h-461v-403h-108v403h-520v97h510l-150 200h-360v97h291z" />
<glyph unicode="&#xa6;" horiz-adv-x="649" d="M274 -324v756h101v-756h-101zM274 791v755h101v-755h-101z" />
<glyph unicode="&#xa7;" horiz-adv-x="1296" d="M80 592q0 102 63.5 179.5t184.5 115.5q-88 30 -130 79t-42 130q0 145 128 227t355 82q263 0 463 -137l-66 -76q-151 119 -428 119q-157 0 -249.5 -52.5t-92.5 -160.5q0 -32 11.5 -56.5t37.5 -42t52.5 -29t73.5 -20.5t82.5 -14.5t98 -14t101.5 -14.5q58 -9 98.5 -17 t89.5 -21.5t82.5 -29t67.5 -39.5t54.5 -53t33 -69t12.5 -88q0 -97 -58.5 -176.5t-158.5 -122.5q80 -31 118 -82t38 -131q0 -148 -131 -231t-332 -83q-180 0 -319 51.5t-224 131.5l68 84q148 -170 467 -170q73 0 136 11t116.5 34t84.5 65.5t31 100.5q0 91 -74 129 q-55 28 -218 48q-13 2 -42 5l-61 8q-64 9 -107.5 16.5t-97 19t-90 24.5t-76 31t-64.5 40.5t-46 51.5t-31 66t-10 81zM188 594q0 -43 13.5 -76.5t50.5 -57.5t64.5 -39t93.5 -28.5t97.5 -19t113.5 -16.5q33 -5 49 -7q92 -13 149 -24q112 33 174 99.5t62 158.5q0 51 -20 88.5 t-50.5 59.5t-82 38t-100 25t-118.5 19q-25 3 -37 5q-103 15 -190 33q-136 -29 -202.5 -92.5t-66.5 -165.5z" />
<glyph unicode="&#xa8;" horiz-adv-x="937" d="M172 1186v139h139v-139h-139zM625 1186v139h139v-139h-139z" />
<glyph unicode="&#xa9;" horiz-adv-x="1746" d="M100 666v45q0 142 56.5 269.5t156 222.5t245 150.5t314.5 55.5q172 0 319 -56t246 -151.5t154.5 -222.5t55.5 -268v-41q0 -139 -54 -265t-151.5 -221.5t-245.5 -152t-324 -56.5q-174 0 -321.5 57t-245 153t-151.5 220.5t-54 260.5zM199 672q0 -127 48.5 -238.5t135 -192 t213.5 -127t276 -46.5q302 0 489 171t187 437v31q0 130 -48 242.5t-135 194t-214 127.5t-279 46q-195 0 -348.5 -78.5t-239 -218t-85.5 -315.5v-33zM479 684v31q0 177 105.5 283t285.5 106q121 0 195 -32t141 -95l-61 -68q-66 61 -122.5 84t-158.5 23q-128 0 -207 -82.5 t-79 -218.5v-27q0 -137 85.5 -214t221.5 -77q181 0 280 123l68 -71q-142 -142 -344 -142q-181 0 -295.5 103t-114.5 274z" />
<glyph unicode="&#xaa;" horiz-adv-x="946" d="M96 831q0 71 26.5 120t76 75.5t107.5 37.5t134 11q141 0 297 -41v39q0 66 -19.5 112.5t-56 72t-80.5 36.5t-102 11q-188 0 -268 -107l-66 74q107 123 336 123q355 0 355 -330v-246q0 -145 12 -207h-96q-13 43 -13 88q-45 -45 -121 -77.5t-180 -32.5q-64 0 -123.5 14.5 t-109.5 42.5t-79.5 75.5t-29.5 108.5zM199 838q0 -42 22 -74t58.5 -49.5t78 -26t86.5 -8.5q93 0 170 31t123 82v163q-123 35 -270 35q-48 0 -81.5 -2.5t-71.5 -11t-61 -24.5t-38.5 -45t-15.5 -70z" />
<glyph unicode="&#xab;" horiz-adv-x="1331" d="M123 506l440 368h144l-443 -368l445 -369h-146zM602 506l438 368h146l-443 -368l445 -369h-146z" />
<glyph unicode="&#xac;" horiz-adv-x="1163" d="M113 709v90h936v-412h-93v322h-843z" />
<glyph unicode="&#xad;" horiz-adv-x="868" d="M127 510v100h612v-100h-612z" />
<glyph unicode="&#xae;" horiz-adv-x="1746" d="M100 666v45q0 142 56.5 269.5t156 222.5t245 150.5t314.5 55.5q172 0 319 -56t246 -151.5t154.5 -222.5t55.5 -268v-41q0 -139 -54 -265t-151.5 -221.5t-245.5 -152t-324 -56.5q-174 0 -321.5 57t-245 153t-151.5 220.5t-54 260.5zM199 672q0 -127 48.5 -238.5t135 -192 t213.5 -127t276 -46.5q302 0 489 171t187 437v31q0 130 -48 242.5t-135 194t-214 127.5t-279 46q-195 0 -348.5 -78.5t-239 -218t-85.5 -315.5v-33zM569 340v743h383q133 0 210 -59.5t77 -157.5v-18q0 -81 -53 -139t-148 -76l217 -293h-112l-203 285h-278v-285h-93zM662 709 h292q94 0 143.5 37.5t49.5 101.5v12q0 139 -189 139h-296v-290z" />
<glyph unicode="&#xaf;" horiz-adv-x="978" d="M172 1210v99h635v-99h-635z" />
<glyph unicode="&#xb0;" horiz-adv-x="837" d="M96 1090q0 131 90 223t240 92q142 0 228.5 -90t86.5 -225q0 -138 -87.5 -230t-227.5 -92q-147 0 -238.5 94t-91.5 228zM188 1092q0 -106 63.5 -173t174.5 -67q101 0 163 66.5t62 173.5q0 99 -63 164t-162 65q-108 0 -173 -64.5t-65 -164.5z" />
<glyph unicode="&#xb1;" horiz-adv-x="1132" d="M113 20v97h907v-97h-907zM113 668v92h405v397h98v-397h406v-92h-406v-394h-98v394h-405z" />
<glyph unicode="&#xb4;" horiz-adv-x="507" d="M72 1128l233 351h131l-274 -351h-90z" />
<glyph unicode="&#xb6;" horiz-adv-x="1552" d="M106 786v52q0 139 54.5 243t158 170t249.5 98.5t333 32.5h584v-84h-164v-1511h-98v1511h-267v-1511h-98v465q-126 1 -234.5 18.5t-205 58t-165 101t-108 151.5t-39.5 205z" />
<glyph unicode="&#xb7;" horiz-adv-x="520" d="M184 500v149h150v-149h-150z" />
<glyph unicode="&#xb8;" horiz-adv-x="632" d="M74 -399l39 94q18 -31 71.5 -55.5t116.5 -24.5q160 0 160 106q0 53 -30 72t-83 19q-36 0 -80 -13l-53 56l31 170h90l-29 -142q244 19 244 -159q0 -87 -64 -139t-186 -52q-74 0 -139 22.5t-88 45.5z" />
<glyph unicode="&#xba;" horiz-adv-x="1017" d="M96 979v27q0 169 114 280t298 111q186 0 300 -109t114 -280v-27q0 -172 -114.5 -279.5t-297.5 -107.5q-185 0 -299.5 108t-114.5 277zM201 981q0 -134 85 -214.5t224 -80.5q137 0 222 78.5t85 212.5v29q0 133 -83.5 216t-223.5 83t-224.5 -83t-84.5 -216v-25z" />
<glyph unicode="&#xbb;" horiz-adv-x="1331" d="M135 137l445 369l-443 368h146l438 -368l-440 -369h-146zM614 137l445 369l-443 368h144l440 -368l-440 -369h-146z" />
<glyph unicode="&#xbc;" horiz-adv-x="1605" d="M76 1208q189 97 330 178h61v-770h-88v658l-285 -150zM252 0l1024 1382h96l-1024 -1382h-96zM827 174v88l478 508h96v-510h198v-86h-198v-172h-82v172h-492zM938 260h381v410z" />
<glyph unicode="&#xbd;" horiz-adv-x="1761" d="M76 1208q189 97 330 178h61v-770h-88v658l-285 -150zM252 0l1024 1382h96l-1024 -1382h-96zM987 0q-14 182 59 277t265 137q138 30 176 46q81 33 82 99q0 135 -232 135q-190 0 -276 -121l-66 70q48 62 133.5 102.5t208.5 40.5q146 0 236 -56t90 -171q0 -49 -18.5 -84.5 t-60 -60t-89 -40t-123.5 -32.5q-164 -34 -227 -90t-60 -166h590v-86h-688z" />
<glyph unicode="&#xbe;" horiz-adv-x="1722" d="M31 743l61 80q39 -60 126.5 -99.5t187.5 -39.5q68 0 124 15t96 54t40 97v8q0 43 -13.5 70.5t-39.5 40t-52 16.5t-65 4q-68 0 -140 -22l-41 86l283 241h-514v86h635v-94l-283 -231q29 10 109 10q91 -2 152 -50.5t61 -148.5v-14q0 -83 -52 -142.5t-130.5 -86.5t-172.5 -27 q-113 0 -216 43t-156 104zM371 0l1024 1382h96l-1024 -1382h-96zM946 174v88l477 508h97v-510h198v-86h-198v-172h-82v172h-492zM1057 260h381v410z" />
<glyph unicode="&#xbf;" horiz-adv-x="1300" d="M100 -72q0 55 17 101.5t42 79.5t70.5 65.5t85.5 53.5t103 51q143 67 187 134t24 167l110 2q64 -223 -225 -361q-153 -75 -198 -106q-83 -58 -98 -141q-5 -24 -5 -52q0 -88 58 -149t153.5 -89t220.5 -28q159 0 281.5 57t187.5 160l90 -72q-73 -102 -216 -172.5t-353 -70.5 q-111 0 -206.5 23t-169.5 67t-116.5 116t-42.5 164zM610 815v150h150v-150h-150z" />
<glyph unicode="&#xc0;" horiz-adv-x="1609" d="M41 0l735 1382h121l672 -1382h-111l-196 406h-893l-215 -406h-113zM420 500h797l-381 784zM469 1821h156l297 -297h-111z" />
<glyph unicode="&#xc1;" horiz-adv-x="1609" d="M41 0l735 1382h121l672 -1382h-111l-196 406h-893l-215 -406h-113zM420 500h797l-381 784zM756 1524l323 297h156l-369 -297h-110z" />
<glyph unicode="&#xc2;" horiz-adv-x="1609" d="M41 0l735 1382h121l672 -1382h-111l-196 406h-893l-215 -406h-113zM420 500h797l-381 784zM459 1524l321 299h111l319 -299h-131l-243 233l-246 -233h-131z" />
<glyph unicode="&#xc3;" horiz-adv-x="1609" d="M41 0l735 1382h121l672 -1382h-111l-196 406h-893l-215 -406h-113zM420 500h797l-381 784zM504 1534v113q49 71 176 71q64 0 168.5 -34.5t155.5 -34.5q114 0 170 73v-112q-54 -58 -170 -58q-52 0 -162 36t-162 36q-69 0 -109 -25t-67 -65z" />
<glyph unicode="&#xc4;" horiz-adv-x="1609" d="M41 0l735 1382h121l672 -1382h-111l-196 406h-893l-215 -406h-113zM420 500h797l-381 784zM483 1565v145h146v-145h-146zM1042 1565v145h144v-145h-144z" />
<glyph unicode="&#xc5;" horiz-adv-x="1609" d="M41 0l735 1382h121l672 -1382h-111l-196 406h-893l-215 -406h-113zM420 500h797l-381 784zM608 1714q0 96 64.5 154.5t163.5 58.5q96 0 160.5 -58.5t64.5 -154.5t-64.5 -154.5t-160.5 -58.5t-162 59t-66 154zM702 1712q0 -61 35.5 -95t98.5 -34q61 0 95 34.5t34 94.5 q0 61 -34 96t-95 35q-63 0 -98.5 -35.5t-35.5 -95.5z" />
<glyph unicode="&#xc6;" horiz-adv-x="2277" d="M-14 0l1077 1382h1098v-100h-944v-524h782v-101h-782v-557h944v-100h-1049v403h-690l-316 -403h-120zM500 502h612v782z" />
<glyph unicode="&#xc7;" horiz-adv-x="1542" d="M113 651v33q0 211 87.5 374.5t251.5 255t382 91.5q397 0 622 -234l-76 -73q-54 62 -122 104.5t-143.5 62.5t-143 27.5t-148.5 7.5q-277 0 -439.5 -165t-162.5 -451v-31q0 -182 84 -313t224.5 -194.5t320.5 -63.5q165 0 312.5 59.5t230.5 173.5l82 -77q-94 -108 -237 -178 t-331 -80l-26 -138q42 7 106 4q88 -7 144.5 -54.5t56.5 -139.5q0 -105 -84 -165t-213 -60q-88 0 -173 26t-126 62l45 92q37 -43 103 -69.5t151 -26.5q90 0 146.5 34t56.5 103t-38.5 95.5t-109.5 29.5q-55 3 -100 -9l-58 50l25 163q-149 5 -276 52.5t-222 131t-148.5 209.5 t-53.5 281z" />
<glyph unicode="&#xc8;" horiz-adv-x="1447" d="M209 0v1382h1114v-100h-1006v-528h844v-103h-844v-551h1004v-100h-1112zM403 1821h156l297 -297h-111z" />
<glyph unicode="&#xc9;" horiz-adv-x="1447" d="M209 0v1382h1114v-100h-1006v-528h844v-103h-844v-551h1004v-100h-1112zM690 1524l324 297h155l-368 -297h-111z" />
<glyph unicode="&#xca;" horiz-adv-x="1447" d="M209 0v1382h1114v-100h-1006v-528h844v-103h-844v-551h1004v-100h-1112zM395 1524l322 299h110l320 -299h-131l-244 233l-246 -233h-131z" />
<glyph unicode="&#xcb;" horiz-adv-x="1447" d="M209 0v1382h1114v-100h-1006v-528h844v-103h-844v-551h1004v-100h-1112zM418 1565v145h145v-145h-145zM977 1565v145h143v-145h-143z" />
<glyph unicode="&#xcc;" horiz-adv-x="532" d="M-72 1823h138l245 -316h-102zM213 0v1382h109v-1382h-109z" />
<glyph unicode="&#xcd;" horiz-adv-x="532" d="M213 0v1382h109v-1382h-109zM221 1507l258 316h139l-290 -316h-107z" />
<glyph unicode="&#xce;" horiz-adv-x="532" d="M-47 1507l260 316h113l256 -316h-125l-189 250l-190 -250h-125zM213 0v1382h109v-1382h-109z" />
<glyph unicode="&#xcf;" horiz-adv-x="532" d="M8 1544v152h135v-152h-135zM213 0v1382h109v-1382h-109zM395 1544v152h133v-152h-133z" />
<glyph unicode="&#xd0;" d="M72 649v86h137v647h602q359 0 561.5 -175t202.5 -498v-37q0 -316 -197 -494t-544 -178h-625v649h-137zM315 102h508q310 0 476.5 145.5t166.5 424.5v35q0 290 -171 431.5t-488 141.5h-492v-545h590v-86h-590v-547z" />
<glyph unicode="&#xd1;" horiz-adv-x="1718" d="M203 0v1382h127l1085 -1257v1257h103v-1382h-129l-1084 1262v-1262h-102zM553 1534v113q49 71 176 71q64 0 168.5 -34.5t155.5 -34.5q114 0 170 73v-112q-54 -58 -170 -58q-52 0 -162 36t-162 36q-69 0 -109 -25t-67 -65z" />
<glyph unicode="&#xd2;" d="M113 659v48q0 202 89.5 360.5t256.5 248t385 89.5q163 0 300.5 -53t231.5 -145.5t146.5 -221.5t52.5 -278v-43q0 -145 -52 -271.5t-145.5 -218t-231 -144.5t-300.5 -53q-165 0 -304 53.5t-232.5 145.5t-145 216.5t-51.5 266.5zM221 664q0 -264 172.5 -424t452.5 -160 t450 158.5t170 429.5v37q0 275 -169.5 436.5t-452.5 161.5t-453 -161.5t-170 -439.5v-38zM487 1825h156l297 -297h-111z" />
<glyph unicode="&#xd3;" d="M113 659v48q0 202 89.5 360.5t256.5 248t385 89.5q163 0 300.5 -53t231.5 -145.5t146.5 -221.5t52.5 -278v-43q0 -145 -52 -271.5t-145.5 -218t-231 -144.5t-300.5 -53q-165 0 -304 53.5t-232.5 145.5t-145 216.5t-51.5 266.5zM221 664q0 -264 172.5 -424t452.5 -160 t450 158.5t170 429.5v37q0 275 -169.5 436.5t-452.5 161.5t-453 -161.5t-170 -439.5v-38zM774 1528l324 297h155l-368 -297h-111z" />
<glyph unicode="&#xd4;" d="M113 659v48q0 202 89.5 360.5t256.5 248t385 89.5q163 0 300.5 -53t231.5 -145.5t146.5 -221.5t52.5 -278v-43q0 -145 -52 -271.5t-145.5 -218t-231 -144.5t-300.5 -53q-165 0 -304 53.5t-232.5 145.5t-145 216.5t-51.5 266.5zM221 664q0 -264 172.5 -424t452.5 -160 t450 158.5t170 429.5v37q0 275 -169.5 436.5t-452.5 161.5t-453 -161.5t-170 -439.5v-38zM477 1528l322 299h110l320 -299h-131l-244 233l-246 -233h-131z" />
<glyph unicode="&#xd5;" d="M113 659v48q0 202 89.5 360.5t256.5 248t385 89.5q163 0 300.5 -53t231.5 -145.5t146.5 -221.5t52.5 -278v-43q0 -145 -52 -271.5t-145.5 -218t-231 -144.5t-300.5 -53q-165 0 -304 53.5t-232.5 145.5t-145 216.5t-51.5 266.5zM221 664q0 -264 172.5 -424t452.5 -160 t450 158.5t170 429.5v37q0 275 -169.5 436.5t-452.5 161.5t-453 -161.5t-170 -439.5v-38zM522 1538v113q49 71 176 71q64 0 168.5 -34.5t155.5 -34.5q114 0 170 73v-112q-54 -58 -170 -58q-52 0 -162 36t-162 36q-69 0 -109 -25t-67 -65z" />
<glyph unicode="&#xd6;" d="M113 659v48q0 202 89.5 360.5t256.5 248t385 89.5q163 0 300.5 -53t231.5 -145.5t146.5 -221.5t52.5 -278v-43q0 -145 -52 -271.5t-145.5 -218t-231 -144.5t-300.5 -53q-165 0 -304 53.5t-232.5 145.5t-145 216.5t-51.5 266.5zM221 664q0 -264 172.5 -424t452.5 -160 t450 158.5t170 429.5v37q0 275 -169.5 436.5t-452.5 161.5t-453 -161.5t-170 -439.5v-38zM502 1569v145h145v-145h-145zM1061 1569v145h143v-145h-143z" />
<glyph unicode="&#xd7;" horiz-adv-x="933" d="M88 307l311 301l-311 301l68 64l311 -299l311 299l66 -64l-312 -301l312 -301l-66 -63l-311 301l-311 -301z" />
<glyph unicode="&#xd8;" d="M113 659v48q0 203 89.5 361t257 247.5t386.5 89.5q228 0 403 -102l142 194h112l-178 -246q121 -94 185.5 -234t64.5 -310v-43q0 -146 -51.5 -272t-145 -218t-231 -144.5t-301.5 -52.5q-209 0 -387 93l-162 -222h-113l197 269q-129 94 -198.5 234.5t-69.5 307.5zM221 664 q0 -149 57.5 -267t163.5 -196l746 1020q-145 82 -344 82q-282 0 -452.5 -162t-170.5 -439v-38zM520 154q145 -74 326 -74q280 0 450 158.5t170 429.5v37q0 304 -202 464z" />
<glyph unicode="&#xd9;" horiz-adv-x="1652" d="M174 575v807h111v-817q0 -160 69.5 -270.5t190.5 -162.5t286 -52q254 0 396.5 125.5t142.5 367.5v809h111v-802q0 -280 -171 -441.5t-481 -161.5q-307 0 -481 157.5t-174 440.5zM457 1821h155l297 -297h-110z" />
<glyph unicode="&#xda;" horiz-adv-x="1652" d="M174 575v807h111v-817q0 -160 69.5 -270.5t190.5 -162.5t286 -52q254 0 396.5 125.5t142.5 367.5v809h111v-802q0 -280 -171 -441.5t-481 -161.5q-307 0 -481 157.5t-174 440.5zM743 1524l324 297h156l-369 -297h-111z" />
<glyph unicode="&#xdb;" horiz-adv-x="1652" d="M174 575v807h111v-817q0 -160 69.5 -270.5t190.5 -162.5t286 -52q254 0 396.5 125.5t142.5 367.5v809h111v-802q0 -280 -171 -441.5t-481 -161.5q-307 0 -481 157.5t-174 440.5zM449 1524l321 299h111l319 -299h-131l-244 233l-245 -233h-131z" />
<glyph unicode="&#xdc;" horiz-adv-x="1652" d="M174 575v807h111v-817q0 -160 69.5 -270.5t190.5 -162.5t286 -52q254 0 396.5 125.5t142.5 367.5v809h111v-802q0 -280 -171 -441.5t-481 -161.5q-307 0 -481 157.5t-174 440.5zM471 1565v145h145v-145h-145zM1030 1565v145h144v-145h-144z" />
<glyph unicode="&#xdd;" horiz-adv-x="1480" d="M35 1382h129l586 -804l567 804h129l-645 -899v-483h-109v483zM662 1524l323 297h156l-369 -297h-110z" />
<glyph unicode="&#xde;" horiz-adv-x="1546" d="M209 0v1382h104v-241h580q262 0 401.5 -105.5t139.5 -312.5v-23q0 -208 -138.5 -317t-394.5 -109h-586v-274h-106zM313 1038l2 -661h582q207 0 317.5 79.5t110.5 241.5v19q0 166 -105.5 243.5t-316.5 77.5h-590z" />
<glyph unicode="&#xdf;" horiz-adv-x="1298" d="M174 0v967q0 244 113 367.5t331 123.5q190 0 303 -86.5t113 -241.5q0 -62 -25.5 -112.5t-61.5 -83.5t-72 -61.5t-61.5 -60t-25.5 -64.5q0 -48 30 -68t147 -55q137 -41 200.5 -109.5t63.5 -200.5q0 -79 -33.5 -144.5t-89 -107.5t-125 -65t-143.5 -23q-107 0 -203.5 30 t-163.5 79l57 94q47 -46 131 -76t175 -30q126 0 210 65t84 174q0 105 -54.5 156t-186.5 88q-119 33 -160 75t-41 111q0 48 25.5 88.5t61.5 71t72 61.5t61.5 74t25.5 94q0 63 -26 109.5t-71 72.5t-99 38t-118 12q-168 0 -255 -96t-87 -285v-981h-102z" />
<glyph unicode="&#xe0;" horiz-adv-x="1159" d="M94 281q0 313 426 313q206 0 406 -90l2 90q1 81 -24 140t-72.5 92.5t-108.5 49t-139 15.5q-238 0 -359 -135l-63 82q159 147 428 147q94 0 171.5 -23.5t137 -70.5t92 -125t31.5 -180q-2 -96 -2 -322q0 -205 16 -264h-94q-13 58 -16 135q-64 -66 -167.5 -112t-240.5 -46 q-83 0 -156.5 17.5t-134.5 52.5t-97 95.5t-36 138.5zM199 289q0 -59 26 -102t72 -67t102 -35t125 -11q275 0 402 157v189q-182 82 -381 82q-85 0 -144 -9t-107 -32t-71.5 -65.5t-23.5 -106.5zM295 1481h133l227 -351h-94z" />
<glyph unicode="&#xe1;" horiz-adv-x="1159" d="M94 281q0 313 426 313q206 0 406 -90l2 90q1 81 -24 140t-72.5 92.5t-108.5 49t-139 15.5q-238 0 -359 -135l-63 82q159 147 428 147q94 0 171.5 -23.5t137 -70.5t92 -125t31.5 -180q-2 -96 -2 -322q0 -205 16 -264h-94q-13 58 -16 135q-64 -66 -167.5 -112t-240.5 -46 q-83 0 -156.5 17.5t-134.5 52.5t-97 95.5t-36 138.5zM199 289q0 -59 26 -102t72 -67t102 -35t125 -11q275 0 402 157v189q-182 82 -381 82q-85 0 -144 -9t-107 -32t-71.5 -65.5t-23.5 -106.5zM549 1128l233 351h131l-274 -351h-90z" />
<glyph unicode="&#xe2;" horiz-adv-x="1159" d="M94 281q0 313 426 313q206 0 406 -90l2 90q1 81 -24 140t-72.5 92.5t-108.5 49t-139 15.5q-238 0 -359 -135l-63 82q159 147 428 147q94 0 171.5 -23.5t137 -70.5t92 -125t31.5 -180q-2 -96 -2 -322q0 -205 16 -264h-94q-13 58 -16 135q-64 -66 -167.5 -112t-240.5 -46 q-83 0 -156.5 17.5t-134.5 52.5t-97 95.5t-36 138.5zM199 289q0 -59 26 -102t72 -67t102 -35t125 -11q275 0 402 157v189q-182 82 -381 82q-85 0 -144 -9t-107 -32t-71.5 -65.5t-23.5 -106.5zM258 1128l291 351h106l279 -351h-125l-207 279l-221 -279h-123z" />
<glyph unicode="&#xe3;" horiz-adv-x="1159" d="M94 281q0 313 426 313q206 0 406 -90l2 90q1 81 -24 140t-72.5 92.5t-108.5 49t-139 15.5q-238 0 -359 -135l-63 82q159 147 428 147q94 0 171.5 -23.5t137 -70.5t92 -125t31.5 -180q-2 -96 -2 -322q0 -205 16 -264h-94q-13 58 -16 135q-64 -66 -167.5 -112t-240.5 -46 q-83 0 -156.5 17.5t-134.5 52.5t-97 95.5t-36 138.5zM199 289q0 -59 26 -102t72 -67t102 -35t125 -11q275 0 402 157v189q-182 82 -381 82q-85 0 -144 -9t-107 -32t-71.5 -65.5t-23.5 -106.5zM281 1167v111q53 59 184 59q56 0 146 -27.5t128 -27.5q112 0 168 64v-117 q-48 -45 -166 -45q-48 0 -141.5 28.5t-146.5 28.5q-105 0 -172 -74z" />
<glyph unicode="&#xe4;" horiz-adv-x="1159" d="M94 281q0 313 426 313q206 0 406 -90l2 90q1 81 -24 140t-72.5 92.5t-108.5 49t-139 15.5q-238 0 -359 -135l-63 82q159 147 428 147q94 0 171.5 -23.5t137 -70.5t92 -125t31.5 -180q-2 -96 -2 -322q0 -205 16 -264h-94q-13 58 -16 135q-64 -66 -167.5 -112t-240.5 -46 q-83 0 -156.5 17.5t-134.5 52.5t-97 95.5t-36 138.5zM199 289q0 -59 26 -102t72 -67t102 -35t125 -11q275 0 402 157v189q-182 82 -381 82q-85 0 -144 -9t-107 -32t-71.5 -65.5t-23.5 -106.5zM299 1186v139h141v-139h-141zM752 1186v139h141v-139h-141z" />
<glyph unicode="&#xe5;" horiz-adv-x="1159" d="M94 281q0 313 426 313q206 0 406 -90l2 90q1 81 -24 140t-72.5 92.5t-108.5 49t-139 15.5q-238 0 -359 -135l-63 82q159 147 428 147q94 0 171.5 -23.5t137 -70.5t92 -125t31.5 -180q-2 -96 -2 -322q0 -205 16 -264h-94q-13 58 -16 135q-64 -66 -167.5 -112t-240.5 -46 q-83 0 -156.5 17.5t-134.5 52.5t-97 95.5t-36 138.5zM199 289q0 -59 26 -102t72 -67t102 -35t125 -11q275 0 402 157v189q-182 82 -381 82q-85 0 -144 -9t-107 -32t-71.5 -65.5t-23.5 -106.5zM389 1319q0 91 60 144t149 53q88 0 147.5 -53t59.5 -144q0 -92 -59.5 -146.5 t-147.5 -54.5t-148.5 54.5t-60.5 146.5zM479 1319q0 -55 33 -87t86 -32q52 0 83.5 32t31.5 87q0 53 -31.5 84t-83.5 31q-53 0 -86 -31t-33 -84z" />
<glyph unicode="&#xe6;" horiz-adv-x="1966" d="M80 270q-3 88 25.5 151t84.5 99t128.5 52t166.5 16q226 0 418 -78v68q7 168 -80.5 239.5t-251.5 71.5q-243 0 -358 -139l-68 77q63 69 172.5 113.5t255.5 44.5q149 0 259 -60.5t141 -174.5q59 113 169 174t259 61q125 0 223 -42.5t156 -114t88 -158.5t30 -183v-14h-894 v-20q0 -181 107 -282t292 -101q138 0 233 44.5t148 114.5l69 -69q-67 -74 -182 -128.5t-268 -54.5q-146 0 -255 54.5t-171 148.5q-60 -88 -186 -145.5t-273 -57.5q-86 0 -161 16t-138 49.5t-100.5 91.5t-38.5 136zM182 283q3 -211 340 -211q132 0 241 49.5t142 118.5v184 q-176 74 -389 74q-67 0 -116.5 -5.5t-92 -20t-69 -38.5t-41.5 -62t-15 -89zM1008 559h782q-49 332 -395 332q-172 0 -269.5 -92.5t-117.5 -239.5z" />
<glyph unicode="&#xe7;" horiz-adv-x="1120" d="M90 463v31q0 210 141.5 350.5t374.5 140.5q293 0 451 -178l-78 -70q-65 84 -160 119t-221 35q-180 0 -291.5 -113t-111.5 -289v-26q0 -183 111.5 -286t301.5 -103q135 0 233.5 49t149.5 125l80 -72q-163 -186 -432 -196l-18 -97q243 19 243 -159q0 -87 -64 -139t-186 -52 q-74 0 -139 22.5t-88 45.5l39 94q18 -31 71.5 -55.5t116.5 -24.5q160 0 160 106q0 53 -30 72t-82 19q-36 0 -80 -13l-54 56l21 127q-208 15 -333.5 144t-125.5 337z" />
<glyph unicode="&#xe8;" horiz-adv-x="1163" d="M90 455v30q0 140 58.5 252t175.5 180t274 68q104 0 189 -29.5t141 -77.5t94 -113t54.5 -133t17.5 -140v-19h-899v-14q0 -191 111.5 -289t289.5 -98q256 0 383 164l74 -70q-68 -80 -184 -134.5t-275 -54.5q-142 0 -255.5 56t-181 165.5t-67.5 256.5zM199 561h786 q-45 332 -395 332q-167 0 -268.5 -89t-122.5 -243zM313 1481h133l228 -351h-94z" />
<glyph unicode="&#xe9;" horiz-adv-x="1163" d="M90 455v30q0 140 58.5 252t175.5 180t274 68q104 0 189 -29.5t141 -77.5t94 -113t54.5 -133t17.5 -140v-19h-899v-14q0 -191 111.5 -289t289.5 -98q256 0 383 164l74 -70q-68 -80 -184 -134.5t-275 -54.5q-142 0 -255.5 56t-181 165.5t-67.5 256.5zM199 561h786 q-45 332 -395 332q-167 0 -268.5 -89t-122.5 -243zM565 1128l234 351h131l-275 -351h-90z" />
<glyph unicode="&#xea;" horiz-adv-x="1163" d="M90 455v30q0 140 58.5 252t175.5 180t274 68q104 0 189 -29.5t141 -77.5t94 -113t54.5 -133t17.5 -140v-19h-899v-14q0 -191 111.5 -289t289.5 -98q256 0 383 164l74 -70q-68 -80 -184 -134.5t-275 -54.5q-142 0 -255.5 56t-181 165.5t-67.5 256.5zM199 561h786 q-45 332 -395 332q-167 0 -268.5 -89t-122.5 -243zM276 1128l291 351h107l278 -351h-125l-206 279l-222 -279h-123z" />
<glyph unicode="&#xeb;" horiz-adv-x="1163" d="M90 455v30q0 140 58.5 252t175.5 180t274 68q104 0 189 -29.5t141 -77.5t94 -113t54.5 -133t17.5 -140v-19h-899v-14q0 -191 111.5 -289t289.5 -98q256 0 383 164l74 -70q-68 -80 -184 -134.5t-275 -54.5q-142 0 -255.5 56t-181 165.5t-67.5 256.5zM199 561h786 q-45 332 -395 332q-167 0 -268.5 -89t-122.5 -243zM315 1186v139h142v-139h-142zM768 1186v139h141v-139h-141z" />
<glyph unicode="&#xec;" horiz-adv-x="460" d="M-70 1481h133l228 -351h-94zM178 0v965h105v-965h-105z" />
<glyph unicode="&#xed;" horiz-adv-x="460" d="M178 0v965h105v-965h-105zM186 1128l220 351h122l-256 -351h-86z" />
<glyph unicode="&#xee;" horiz-adv-x="460" d="M-80 1128l268 351h99l256 -351h-115l-190 281l-203 -281h-115zM178 0v965h105v-965h-105z" />
<glyph unicode="&#xef;" horiz-adv-x="460" d="M-27 1186v139h142v-139h-142zM178 0v965h105v-965h-105zM348 1186v139h139v-139h-139z" />
<glyph unicode="&#xf0;" horiz-adv-x="1255" d="M90 455v24q0 225 143.5 362.5t387.5 137.5q136 0 241.5 -51.5t169.5 -136.5q-68 235 -284 411l-367 -168l-37 70l328 156q-143 102 -346 186h184q132 -56 254 -141l237 112l41 -80l-202 -92q325 -275 325 -704v-33q0 -246 -140 -390.5t-398 -144.5q-243 0 -390 137 t-147 345zM199 459q0 -182 118.5 -284.5t311.5 -102.5q195 0 312.5 101t121.5 300q-5 192 -121 301t-317 109q-204 0 -315 -105.5t-111 -298.5v-20z" />
<glyph unicode="&#xf1;" horiz-adv-x="1290" d="M178 0v965h101l4 -156q69 80 177 128t228 48q212 0 328.5 -110.5t116.5 -323.5v-551h-107v535q0 180 -83.5 267t-268.5 87q-121 0 -224 -50.5t-163 -133.5v-705h-109zM348 1167v111q53 59 184 59q56 0 146.5 -27.5t128.5 -27.5q112 0 168 64v-117q-48 -45 -166 -45 q-48 0 -142 28.5t-147 28.5q-105 0 -172 -74z" />
<glyph unicode="&#xf2;" horiz-adv-x="1228" d="M90 467v29q0 214 143 351.5t381 137.5q235 0 380 -136.5t145 -350.5v-29q0 -222 -145 -357t-380 -135q-237 0 -380.5 136.5t-143.5 353.5zM195 469q0 -185 111.5 -290t307.5 -105q193 0 306.5 103t113.5 290v27q0 180 -111.5 288.5t-308.5 108.5q-195 0 -307 -108.5 t-112 -288.5v-25zM315 1481h134l227 -351h-94z" />
<glyph unicode="&#xf3;" horiz-adv-x="1228" d="M90 467v29q0 214 143 351.5t381 137.5q235 0 380 -136.5t145 -350.5v-29q0 -222 -145 -357t-380 -135q-237 0 -380.5 136.5t-143.5 353.5zM195 469q0 -185 111.5 -290t307.5 -105q193 0 306.5 103t113.5 290v27q0 180 -111.5 288.5t-308.5 108.5q-195 0 -307 -108.5 t-112 -288.5v-25zM569 1128l234 351h131l-275 -351h-90z" />
<glyph unicode="&#xf4;" horiz-adv-x="1228" d="M90 467v29q0 214 143 351.5t381 137.5q235 0 380 -136.5t145 -350.5v-29q0 -222 -145 -357t-380 -135q-237 0 -380.5 136.5t-143.5 353.5zM195 469q0 -185 111.5 -290t307.5 -105q193 0 306.5 103t113.5 290v27q0 180 -111.5 288.5t-308.5 108.5q-195 0 -307 -108.5 t-112 -288.5v-25zM279 1128l290 351h107l278 -351h-125l-206 279l-222 -279h-122z" />
<glyph unicode="&#xf5;" horiz-adv-x="1228" d="M90 467v29q0 214 143 351.5t381 137.5q235 0 380 -136.5t145 -350.5v-29q0 -222 -145 -357t-380 -135q-237 0 -380.5 136.5t-143.5 353.5zM195 469q0 -185 111.5 -290t307.5 -105q193 0 306.5 103t113.5 290v27q0 180 -111.5 288.5t-308.5 108.5q-195 0 -307 -108.5 t-112 -288.5v-25zM301 1167v111q53 59 184 59q56 0 146.5 -27.5t128.5 -27.5q112 0 168 64v-117q-48 -45 -166 -45q-48 0 -142 28.5t-147 28.5q-105 0 -172 -74z" />
<glyph unicode="&#xf6;" horiz-adv-x="1228" d="M90 467v29q0 214 143 351.5t381 137.5q235 0 380 -136.5t145 -350.5v-29q0 -222 -145 -357t-380 -135q-237 0 -380.5 136.5t-143.5 353.5zM195 469q0 -185 111.5 -290t307.5 -105q193 0 306.5 103t113.5 290v27q0 180 -111.5 288.5t-308.5 108.5q-195 0 -307 -108.5 t-112 -288.5v-25zM319 1186v139h142v-139h-142zM772 1186v139h141v-139h-141z" />
<glyph unicode="&#xf7;" horiz-adv-x="1132" d="M113 565v97h907v-97h-907zM516 135v144h143v-144h-143zM518 950v146h144v-146h-144z" />
<glyph unicode="&#xf8;" horiz-adv-x="1265" d="M96 471v29q0 106 38 196.5t107 156t170 103t222 37.5q166 0 287 -65l118 157h107l-154 -202q85 -66 130.5 -164.5t45.5 -218.5v-29q0 -221 -146 -359.5t-386 -138.5q-156 0 -285 66l-123 -164h-102l156 207q-88 66 -136.5 167t-48.5 222zM201 471q0 -203 139 -311 l522 690q-96 47 -227 47q-204 0 -319 -108t-115 -293v-25zM410 117q96 -47 225 -47q197 0 313.5 106.5t116.5 292.5v27q0 203 -133 309z" />
<glyph unicode="&#xf9;" horiz-adv-x="1243" d="M145 395v570h107v-551q0 -183 91.5 -261.5t266.5 -78.5q123 0 219 49t150 123v719h106v-668q0 -227 23 -297h-102q-18 66 -21 145q-59 -68 -159 -118t-226 -50q-216 0 -335.5 104t-119.5 314zM330 1481h133l227 -351h-94z" />
<glyph unicode="&#xfa;" horiz-adv-x="1243" d="M145 395v570h107v-551q0 -183 91.5 -261.5t266.5 -78.5q123 0 219 49t150 123v719h106v-668q0 -227 23 -297h-102q-18 66 -21 145q-59 -68 -159 -118t-226 -50q-216 0 -335.5 104t-119.5 314zM582 1128l233 351h131l-274 -351h-90z" />
<glyph unicode="&#xfb;" horiz-adv-x="1243" d="M145 395v570h107v-551q0 -183 91.5 -261.5t266.5 -78.5q123 0 219 49t150 123v719h106v-668q0 -227 23 -297h-102q-18 66 -21 145q-59 -68 -159 -118t-226 -50q-216 0 -335.5 104t-119.5 314zM293 1128l291 351h106l279 -351h-125l-207 279l-221 -279h-123z" />
<glyph unicode="&#xfc;" horiz-adv-x="1243" d="M145 395v570h107v-551q0 -183 91.5 -261.5t266.5 -78.5q123 0 219 49t150 123v719h106v-668q0 -227 23 -297h-102q-18 66 -21 145q-59 -68 -159 -118t-226 -50q-216 0 -335.5 104t-119.5 314zM332 1186v139h141v-139h-141zM784 1186v139h142v-139h-142z" />
<glyph unicode="&#xfd;" horiz-adv-x="1089" d="M16 965h115l420 -863l410 863h112q-132 -272 -214 -438.5t-186 -370t-185.5 -346t-149.5 -240.5l-94 47q81 105 149.5 217.5t100.5 179.5zM494 1128l233 351h131l-274 -351h-90z" />
<glyph unicode="&#xfe;" horiz-adv-x="1286" d="M172 801v651h104v-633q70 75 175.5 120.5t242.5 45.5q224 0 363 -126.5t139 -350.5v-25q0 -236 -138.5 -369.5t-377.5 -133.5q-125 0 -231 37.5t-177 93.5v-525h-98v1215h-2zM276 215q156 -141 402 -141q192 0 303 103.5t111 303.5v25q0 193 -110.5 289t-297.5 96 q-263 0 -408 -176v-500z" />
<glyph unicode="&#xff;" horiz-adv-x="1089" d="M16 965h115l420 -863l410 863h112q-132 -272 -214 -438.5t-186 -370t-185.5 -346t-149.5 -240.5l-94 47q81 105 149.5 217.5t100.5 179.5zM244 1186v139h141v-139h-141zM696 1186v139h142v-139h-142z" />
<glyph unicode="&#x152;" horiz-adv-x="2408" d="M113 672v37q0 143 50 268t145 222t246.5 153.5t340.5 56.5q119 0 326 -27h1071v-100h-967v-522h807v-103h-807v-557h967v-100h-1057q-182 -31 -344 -31q-181 0 -329.5 55t-245.5 150.5t-150 223.5t-53 274zM223 676q0 -126 43 -235t125 -192t210.5 -131t289.5 -48 q220 0 326 49v1153q-120 35 -324 35q-137 0 -249.5 -32t-189.5 -88t-130 -133.5t-77 -166t-24 -187.5v-24z" />
<glyph unicode="&#x153;" horiz-adv-x="2076" d="M84 467v29q0 214 140.5 351.5t371.5 137.5q162 0 283 -69t180 -189q61 120 177 189t277 69q104 0 189 -29.5t141 -77.5t94 -113t54.5 -133t17.5 -140v-19h-897v-4q0 -27 -2 -41q10 -176 120.5 -266t282.5 -90q254 0 381 164l74 -70q-68 -80 -184 -134.5t-275 -54.5 q-152 0 -271.5 65.5t-180.5 184.5q-62 -118 -181.5 -184t-277.5 -66q-233 0 -373.5 136.5t-140.5 353.5zM186 469q0 -185 109.5 -290t302.5 -105q173 0 283 88.5t127 251.5q-2 12 -2 41v30q0 36 2 54q-14 161 -122 256.5t-288 95.5q-192 0 -302 -108.5t-110 -288.5v-25z M1114 561h789q-45 332 -398 332q-166 0 -267.5 -88.5t-123.5 -243.5z" />
<glyph unicode="&#x178;" horiz-adv-x="1480" d="M35 1382h129l586 -804l567 804h129l-645 -899v-483h-109v483zM389 1565v145h146v-145h-146zM948 1565v145h144v-145h-144z" />
<glyph unicode="&#x2c6;" horiz-adv-x="823" d="M74 1128l291 351h106l279 -351h-125l-207 279l-221 -279h-123z" />
<glyph unicode="&#x2dc;" horiz-adv-x="970" d="M172 1167v111q53 59 184 59q56 0 146.5 -27.5t128.5 -27.5q112 0 168 64v-117q-48 -45 -166 -45q-48 0 -142 28.5t-147 28.5q-105 0 -172 -74z" />
<glyph unicode="&#x2000;" horiz-adv-x="963" />
<glyph unicode="&#x2001;" horiz-adv-x="1927" />
<glyph unicode="&#x2002;" horiz-adv-x="963" />
<glyph unicode="&#x2003;" horiz-adv-x="1927" />
<glyph unicode="&#x2004;" horiz-adv-x="642" />
<glyph unicode="&#x2005;" horiz-adv-x="481" />
<glyph unicode="&#x2006;" horiz-adv-x="321" />
<glyph unicode="&#x2007;" horiz-adv-x="321" />
<glyph unicode="&#x2008;" horiz-adv-x="240" />
<glyph unicode="&#x2009;" horiz-adv-x="385" />
<glyph unicode="&#x200a;" horiz-adv-x="107" />
<glyph unicode="&#x2010;" horiz-adv-x="868" d="M127 510v100h612v-100h-612z" />
<glyph unicode="&#x2011;" horiz-adv-x="868" d="M127 510v100h612v-100h-612z" />
<glyph unicode="&#x2012;" horiz-adv-x="868" d="M127 510v100h612v-100h-612z" />
<glyph unicode="&#x2013;" horiz-adv-x="1355" d="M131 514v94h1094v-94h-1094z" />
<glyph unicode="&#x2014;" horiz-adv-x="1873" d="M131 514v94h1612v-94h-1612z" />
<glyph unicode="&#x2018;" horiz-adv-x="409" d="M94 846q25 349 144 577l88 -28q-111 -227 -125 -549h-107z" />
<glyph unicode="&#x2019;" horiz-adv-x="409" d="M84 834q62 129 89 259.5t36 288.5h104q-25 -349 -143 -575z" />
<glyph unicode="&#x201a;" horiz-adv-x="409" d="M84 -338q62 129 89 260t36 289h104q-25 -350 -143 -576z" />
<glyph unicode="&#x201c;" horiz-adv-x="733" d="M86 846q25 349 143 575l86 -26q-62 -129 -89 -260t-36 -289h-104zM412 846q25 349 143 575l86 -26q-62 -129 -89 -260t-36 -289h-104z" />
<glyph unicode="&#x201d;" horiz-adv-x="724" d="M84 834q62 129 89 259.5t36 288.5h104q-25 -349 -143 -575zM399 834q63 130 90.5 262t34.5 286h107q-24 -347 -144 -575z" />
<glyph unicode="&#x201e;" horiz-adv-x="724" d="M84 -338q62 129 89 260t36 289h104q-25 -350 -143 -576zM399 -338q63 130 90.5 262t34.5 287h107q-25 -348 -144 -576z" />
<glyph unicode="&#x2022;" horiz-adv-x="811" d="M184 567q0 95 61.5 156t160.5 61t160 -61t61 -156q0 -94 -61.5 -156.5t-159.5 -62.5q-97 0 -159.5 63.5t-62.5 155.5z" />
<glyph unicode="&#x2026;" horiz-adv-x="1386" d="M186 0v135h136v-135h-136zM627 0v135h137v-135h-137zM1067 0v135h135v-135h-135z" />
<glyph unicode="&#x202f;" horiz-adv-x="385" />
<glyph unicode="&#x2039;" horiz-adv-x="851" d="M123 506l438 368h146l-443 -368l445 -369h-146z" />
<glyph unicode="&#x203a;" horiz-adv-x="851" d="M143 137l445 369l-443 368h144l440 -368l-440 -369h-146z" />
<glyph unicode="&#x205f;" horiz-adv-x="481" />
<glyph unicode="&#x20ac;" horiz-adv-x="1517" d="M14 506v94h144q-2 23 -2 66v30q0 58 6 113h-148v96h164q57 235 241 367.5t462 132.5q340 0 557 -184l-74 -76q-78 75 -193 116.5t-301 41.5q-221 0 -371 -104.5t-204 -293.5h786l-20 -96h-787q-8 -49 -8 -115v-28q0 -43 2 -66h756l-20 -94h-721q45 -203 203.5 -314.5 t408.5 -111.5q294 0 459 168l78 -84q-218 -187 -537 -187q-291 0 -483 141t-242 388h-156z" />
<glyph unicode="&#x2122;" horiz-adv-x="1781" d="M96 1303v79h680v-79h-293v-558h-92v558h-295zM887 745v637h102l297 -395l297 395h103v-637h-87v527l-296 -393h-31l-301 391v-525h-84z" />
<glyph unicode="&#x25fc;" horiz-adv-x="962" d="M0 0v963h963v-963h-963z" />
</font>
</defs>
</svg>
